<svg width="60" height="57" viewBox="0 0 60 57" fill="none" xmlns="http://www.w3.org/2000/svg">
<path d="M43.54 1.43352C48.0356 1.45427 48.3429 4.86615 48.3232 14.328L48.2788 35.6548C48.259 45.1166 47.9375 48.5256 43.4419 48.5049L43.4409 48.9855L57.559 49.0506L57.56 48.57C53.0644 48.5493 52.7571 45.1374 52.7768 35.6755L52.8212 14.3488C52.8409 4.88691 53.1625 1.47794 57.6581 1.49869L57.6591 1.0203L43.541 0.955139L43.54 1.43352Z" fill="#D4B05F"/>
<mask id="mask0_90_20" style="mask-type:luminance" maskUnits="userSpaceOnUse" x="0" y="34" width="59" height="23">
<path d="M0.0664825 34.512L58.8902 34.7581L58.8411 56.1297L0.0173477 55.8837L0.0664825 34.512Z" fill="white"/>
</mask>
<g mask="url(#mask0_90_20)">
<mask id="mask1_90_20" style="mask-type:luminance" maskUnits="userSpaceOnUse" x="-3" y="31" width="65" height="30">
<path d="M1.24392 31.6999L61.3832 41.608L57.742 60.6005L-2.39721 50.6949L1.24392 31.6999Z" fill="white"/>
</mask>
<g mask="url(#mask1_90_20)">
<mask id="mask2_90_20" style="mask-type:luminance" maskUnits="userSpaceOnUse" x="-3" y="31" width="65" height="30">
<path d="M1.23519 31.7036L61.3865 41.653L57.7512 60.5966L-2.40019 50.6497L1.23519 31.7036Z" fill="white"/>
</mask>
<g mask="url(#mask2_90_20)">
<path d="M36.4243 48.34C34.3895 47.2408 32.7027 45.7798 31.1658 44.1659C30.7325 44.405 29.611 45.4629 29.4636 45.7697C31.5671 47.3456 33.5716 49.0405 35.7714 50.5461C36.1307 49.8376 36.375 49.1163 36.4243 48.34ZM29.2333 46.0442C28.8611 46.484 28.3492 47.3991 28.1234 48.2353C27.1959 51.6901 30.3671 54.1883 33.2902 52.9241C34.4589 52.4185 35.3639 51.3959 35.5999 50.8332C33.3974 49.33 31.3689 47.6325 29.2333 46.0442ZM30.915 43.9055C27.0225 39.5933 26.1047 38.5693 24.388 37.4598C20.4152 34.8883 15.9157 35.7936 13.6765 37.2256C18.6077 38.7944 21.893 40.0844 29.0231 45.4398C29.3915 45.7155 28.9083 45.3609 30.915 43.9055ZM33.8614 44.854C33.9047 44.5099 35.8657 44.9347 36.4055 46.7378C36.541 47.188 36.6417 47.7357 36.6471 47.7406C37.5361 48.3224 39.2187 49.0897 40.8029 49.4755C46.1007 50.7706 49.7409 47.2885 47.9865 44.5841C46.0002 41.5241 38.7525 39.6261 31.9417 43.6334C31.9016 43.6576 31.8535 43.667 31.8107 43.6839C32.3092 44.4684 35.723 47.3491 36.3908 47.5607C36.375 47.3897 36.1943 46.7536 36.0691 46.4793C35.6589 45.5855 34.9382 45.0291 33.8614 44.854ZM28.87 45.9346C28.9343 45.8422 28.961 45.8399 28.8702 45.7709C25.9044 43.5597 21.8389 40.4675 15.6874 38.2221C14.9983 37.9712 13.7081 37.5726 13.2752 37.5015C12.9409 37.6338 11.7526 38.684 11.2377 39.8457C10.5404 41.4068 11.3517 42.1029 11.1966 42.1825C10.1697 40.8722 11.0735 38.8556 12.6124 37.4877C12.7222 37.3931 12.7543 37.3762 12.6501 37.3561C8.91228 36.5907 5.54104 37.2905 3.64977 38.3998C-0.499248 40.8312 1.21096 44.3998 1.16282 44.4215C0.0724171 42.7078 0.639924 38.7159 5.69612 37.2426C9.74429 36.0635 12.963 37.1895 13.1369 37.0611C15.727 35.177 19.4479 34.7432 22.3302 35.6595C27.4484 37.2856 31.097 43.7405 31.7016 43.3901C38.5068 39.4537 45.982 41.2383 48.1313 44.2748C50.59 47.7455 45.1142 52.6792 36.8382 48.5525C36.4964 48.3844 36.7584 48.3664 36.3689 49.5729C36.0869 50.4406 35.8755 50.62 35.9716 50.6865C39.0045 52.7418 41.9363 54.4913 45.5991 55.3441C48.8772 56.1041 52.2955 56.0225 55.083 54.3448C57.282 53.0224 58.1996 50.73 58.0597 49.6302C58.0069 49.2098 57.8041 49.0084 57.7962 48.896C59.7157 50.2851 55.833 58.374 44.7972 55.4246C40.8113 54.3598 38.0696 52.4235 35.9016 51.0402C35.7307 50.9317 35.7762 50.9027 35.6637 51.0778C32.3333 56.3739 24.5709 51.994 28.87 45.9346Z" fill="#D4B05F"/>
</g>
</g>
</g>
</svg>
